PathFileType	4	(X/Y/Z)	C:/Users/beibeiliu/ov580/test_trc/User3\sequence.25_training_dense_left.trc
DataRate	CameraRate	NumFrames	NumMarkers	Units	OrigDataRate	OrigDataStartFrame	OrigNumFrames
120	120	15	19	mm	120	206	274
Frame#	Time	ThumbCMC			ThumbMCP			ThumbIP			ThumbTip			IndexMCP			IndexPIP			IndexTip			MiddleMCP			MiddlePIP			MiddleTip			RingMCP			RingPIP			RingTip			PinkyMCP			PinkyPIP			PinkyTip			BackHand1			BackHand2			BackHand3	
		X0	Y0	Z0	X1	Y1	Z1	X2	Y2	Z2	X3	Y3	Z3	X4	Y4	Z4	X5	Y5	Z5	X6	Y6	Z6	X7	Y7	Z7	X8	Y8	Z8	X9	Y9	Z9	X10	Y10	Z10	X11	Y11	Z11	X12	Y12	Z12	X13	Y13	Z13	X14	Y14	Z14	X15	Y15	Z15	X16	Y16	Z16	X17	Y17	Z17	X18	Y18	Z18	
205	1.70833	-151.456	9.6736	28.131	-130.633	-3.43355	15.0384	-112.702	-18.676	-7.55845	-101.678	-34.8296	-21.0326	-135.706	-27.3977	-33.1977	-114.211	-48.3665	-16.8208	-131.024	-34.276	8.15747	-146.236	-44.4482	-32.3599	-132.942	-64.8076	-9.19895	-154.37	-38.8687	13.7887	-162.626	-59.4857	-26.2703	-149.657	-72.8735	-1.03749	-156.293	-51.6304	20.3473	-181.126	-55.2249	-27.9393	-168.09	-73.168	-34.8811	-150.155	-87.9394	-35.7964	-200.049	-13.0392	-9.53025	-216.918	-4.88047	16.9958	-183.436	11.302	5.81072	
206	1.71667	-152.265	17.4909	31.2029	-128.321	6.64167	19.7163	-107.259	-4.1929	2.25532	-92.0338	-21.5095	-14.3937	-127.396	-17.4386	-28.1244	-104.691	-32.2826	-7.84405	-124.813	-17.3395	13.1511	-133.247	-34.2761	-26.8065	-120.485	-51.2783	-2.93407	-142.458	-27.9591	18.4759	-151.261	-48.5586	-21.5955	-133.073	-60.8584	2.09753	-150.552	-40.7479	24.6417	-170.895	-50.3412	-19.9584	-150.303	-65.1019	-28.6419	-127.415	-79.2366	-28.8761	-193.025	-10.188	-7.78136	-214.254	-2.73245	18.4071	-178.314	17.3288	6.64354	
207	1.725	-155.417	27.819	35.0262	-126.542	18.8418	25.6165	-101.077	12.6455	9.21209	-84.6561	-3.56507	-2.54181	-118.086	-0.949196	-24.6409	-96.9255	-10.4553	-5.04652	-120.923	-0.00664817	13.6198	-124.232	-21.5152	-23.0445	-106.877	-32.503	0.687735	-136.805	-15.6242	22.9549	-135.328	-33.5983	-17.4772	-121.445	-47.5687	5.24713	-136.376	-28.7862	27.6545	-156.669	-46.7224	-18.203	-136.491	-57.5744	-24.4579	-112.696	-68.7782	-21.8974	-187.617	-7.36409	-4.39143	-208.733	-1.82701	15.9136	-182.124	23.0096	10.5157	
208	1.73333	-158.696	37.2224	38.4608	-128.343	28.0602	27.1612	-99.2222	24.4045	15.6128	-81.1219	6.18094	3.14585	-116.94	13.422	-21.2877	-93.4592	12.7561	0.30616	-121.392	19.3226	14.9757	-119.666	-5.07555	-20.3819	-98.7863	-9.80155	5.11732	-133.97	-0.860823	25.3681	-128.551	-23.6329	-14.1033	-108.406	-23.9184	12.1273	-131.434	-11.5587	32.4285	-143.522	-32.3155	-14.251	-119.325	-41.9258	-19.0521	-101.145	-48.3262	-18.7899	-183.609	-4.41981	-0.581714	-205.507	-3.08867	19.4575	-183.781	25.4891	10.1541	
209	1.74167	-163.02	45.386	37.4558	-131.393	42.1416	31.1882	-100.647	35.4036	15.2211	-83.4669	22.8001	7.42048	-119.47	30.4436	-18.9736	-95.5271	29.7794	2.30641	-125.78	33.0195	15.9327	-115.529	8.46662	-17.5386	-95.6073	8.8745	10.4565	-130.937	17.7229	28.1753	-121.664	-5.86439	-10.8352	-100.779	-5.465	14.032	-127.956	4.95025	35.4132	-134.649	-24.9556	-10.1963	-111.399	-30.224	-15.3737	-85.9591	-30.3127	-15.9725	-179.622	-2.02171	-1.32566	-198.776	0.819261	16.848	-187.552	29.5855	9.34702	
210	1.75	-166.855	52.7941	32.2086	-135.154	52.7623	28.2955	-107.321	49.6242	14.9126	-84.1159	41.2474	5.35067	-118.126	44.1696	-20.7713	-99.8896	48.3032	4.60463	-129.225	45.0291	15.4994	-113.778	22.2045	-17.1487	-95.9546	26.5553	7.0552	-134.455	25.5186	27.1283	-118.028	2.83693	-8.32219	-101.141	9.93902	14.4392	-127.35	16.7577	35.1932	-131.969	-16.996	-9.71749	-107.203	-17.154	-15.3795	-84.4747	-13.801	-18.4917	-180.288	3.5951	-0.850106	-200.316	-0.064362	22.3062	-186.692	34.4306	6.139	
211	1.75833	-173.854	56.5641	31.5044	-142.279	61.9394	20.5414	-114.879	69.0524	8.45971	-95.6086	60.823	0.572987	-125.194	54.5583	-25.2271	-105.713	56.3752	-2.36049	-137.763	50.4128	12.0619	-120.656	29.4121	-21.1443	-100.65	36.6983	2.81666	-136.904	32.7046	25.3426	-118.154	12.4457	-11.3768	-105.169	19.7668	15.6651	-134.708	24.8277	33.0063	-130.688	-6.2969	-14.7277	-111.419	-5.1604	-18.4368	-89.7938	-1.55481	-24.7567	-179.902	3.63167	-3.88608	-198.925	1.12406	18.8756	-193.844	39.5677	4.53546	
212	1.76667	-182.1	65.7489	26.6235	-156.129	75.91	16.4478	-131.616	81.8853	-3.24381	-111.171	76.8879	-13.7437	-137.264	60.226	-31.7916	-113.999	65.7005	-12.4362	-140.958	58.0782	8.29071	-132.661	40.2434	-27.9883	-108.873	41.8112	-4.17461	-141.102	41.7778	20.0438	-128.769	20.2543	-18.527	-112.692	28.8973	8.45678	-136.049	30.6554	27.1188	-140.443	0.263849	-17.1304	-118.044	2.58124	-26.9571	-96.2207	3.59939	-32.643	-185.512	5.92969	-3.77558	-204.983	2.26035	20.0663	-197.628	36.3143	4.62608	
213	1.775	-189.647	61.1994	25.0704	-165.229	78.1757	8.61301	-146.289	83.4385	-13.6713	-125.028	84.9281	-31.6034	-147.066	59.312	-40.3712	-123.573	68.0946	-22.8926	-142.331	58.2593	1.41975	-137.456	40.3813	-36.0421	-116.97	47.1231	-16.0609	-144.183	41.1742	12.5333	-137.702	20.6989	-26.3382	-118.423	30.9666	-2.54611	-140.716	34.8755	19.4217	-146.691	3.65691	-25.7673	-126.775	8.51121	-37.1701	-105.599	9.98783	-48.11	-191.768	5.7483	-7.20654	-206.964	2.456	19.216	-207.056	39.4855	5.2743	
214	1.78333	-193.698	61.8721	21.3774	-171.277	74.3776	-0.143988	-154.129	82.8153	-21.7878	-137.216	82.5883	-36.6341	-159.795	59.526	-47.4487	-133.188	64.0289	-33.0504	-153.597	59.1816	-5.95213	-153.031	39.0207	-44.1146	-127.026	49.7741	-22.9744	-153.497	44.7425	5.3617	-147.836	18.9461	-34.1121	-125.559	27.2515	-15.2385	-148.752	30.7378	11.5912	-157.309	1.9749	-33.5888	-136.624	6.65652	-47.671	-116.862	9.9136	-60.3193	-201.006	7.48468	-12.2325	-212.486	4.28334	17.4796	-214.411	36.0466	2.08342	
215	1.79167	-193.005	58.682	17.8277	-172.347	70.7873	-1.57253	-155.557	80.0736	-24.0691	-140.079	76.9702	-40.2388	-172.599	55.6244	-49.4355	-140.894	60.8067	-42.2927	-156.125	55.7004	-13.6025	-159.649	35.2555	-50.6844	-134.724	43.5595	-35.8816	-158.93	40.223	-0.308484	-155.32	19.9095	-43.2039	-133.603	21.3847	-24.262	-150.298	29.1579	3.60994	-167.523	-1.41272	-41.8594	-151.99	3.01419	-54.5037	-132.002	7.21612	-69.9481	-207.285	6.18364	-12.3622	-220.728	5.4198	17.422	-218.693	38.0209	-0.344758	
216	1.8	-193.021	55.5987	21.4963	-168.16	63.3464	-4.6378	-151.23	70.8985	-24.2358	-137.342	61.9424	-45.4858	-178.747	53.8169	-53.7974	-145.983	55.4434	-46.844	-158.587	54.0404	-18.0019	-171.057	35.9659	-53.9432	-139.056	38.3728	-39.6252	-160.905	32.4354	-6.54559	-169.234	15.0135	-46.3496	-140.921	15.8642	-32.2765	-154.242	23.6546	-2.07013	-179.595	-1.37485	-44.3816	-164.162	-1.4943	-58.7086	-145.59	2.13121	-75.3959	-216.382	10.4996	-13.5337	-223.685	2.90723	15.101	-220.903	38.0517	2.17021	
217	1.80833	-188.155	54.9029	17.8078	-164.549	55.2487	-6.35915	-148.68	51.8476	-27.1938	-138.697	42.2375	-47.4735	-180.584	50.9078	-55.961	-150.074	48.0035	-59.3322	-149.971	49.3421	-24.4176	-171.513	30.4412	-58.522	-142.895	29.0419	-46.2423	-159.892	26.0721	-9.88734	-172.714	10.4995	-50.2813	-147.09	5.45234	-38.8418	-156.9	16.2481	-5.52935	-188.567	-6.50509	-42.8122	-174.231	-10.875	-61.6171	-154.006	-7.66864	-78.7052	-221.548	11.606	-13.0834	-228.175	5.45437	17.6691	-221.223	38.9723	3.5534	
218	1.81667	-183.769	47.5412	19.5577	-163.839	47.419	-4.74148	-154.823	38.8183	-33.3828	-145.846	30.5413	-52.7532	-176.274	43.785	-53.2058	-146.285	34.8437	-60.4004	-134.606	30.9264	-27.6256	-175.388	21.2627	-59.6758	-147.081	12.4828	-51.4664	-160.625	14.7707	-12.5125	-181.573	2.54522	-50.0442	-151.523	-4.87361	-40.3232	-158.443	0.170517	-10.07	-199.116	-11.6422	-42.7778	-183.261	-11.2955	-64.05	-166.266	-15.7558	-82.0884	-224.184	13.6304	-11.2036	-233.653	8.45469	16.61	-219.677	40.7172	7.2907	
219	1.825	-176.284	39.174	22.2323	-156.663	39.6132	-3.6496	-151.356	30.8311	-36.1889	-145.868	20.4608	-51.2182	-169.246	35.9019	-52.0712	-141.956	18.2003	-60.6571	-131.65	9.41325	-26.1385	-175.573	13.0063	-56.3077	-149.532	-5.06555	-51.1037	-160.291	0.91845	-12.7392	-181.327	-5.66084	-51.5911	-158.153	-17.391	-42.6473	-162.811	-10.8793	-7.77444	-202.246	-10.2145	-42.686	-193.39	-19.191	-62.5842	-176.284	-23.4956	-79.0618	-221.625	14.3355	-10.2286	-231.977	15.7597	18.1861	-209.899	39.9499	6.18796	
